<svg width="220" height="50" viewBox="0 0 220 50" fill="none" xmlns="http://www.w3.org/2000/svg">
<path d="M10.8778 28.3341C10.8778 23.7295 12.3492 19.0998 14.6066 15.6445C16.8905 12.1486 19.8076 10.0885 22.6122 10.0939C25.4198 10.0993 28.3368 12.1638 30.6188 15.657C32.8747 19.1102 34.3444 23.7336 34.3444 28.3341C34.3444 31.7321 33.1363 34.5271 31.1026 36.5141C29.0673 38.5028 26.1374 39.7467 22.5872 39.9061C19.0404 39.9008 16.1302 38.7069 14.1096 36.713C12.0857 34.7158 10.8778 31.8408 10.8778 28.3341Z" stroke="black" stroke-width="2.2"/>
<path d="M27.7737 32.1299C26.4049 33.4957 24.5479 34.2634 22.6111 34.2634C20.6744 34.2634 18.8173 33.4957 17.4485 32.1299C16.0797 30.7642 15.3111 28.9122 15.3111 26.9817C15.3111 24.9142 16.1689 21.993 17.5948 19.5876C18.3028 18.3933 19.1237 17.3731 19.9992 16.6613C20.8739 15.9502 21.754 15.5841 22.6111 15.5841C23.4682 15.5841 24.3484 15.9502 25.223 16.6613C26.0986 17.3731 26.9195 18.3933 27.6274 19.5876C29.0533 21.993 29.9111 24.9142 29.9111 26.9817C29.9111 28.9122 29.1425 30.7642 27.7737 32.1299Z" stroke="black" stroke-width="1.9" stroke-linecap="round" stroke-linejoin="round"/>
<path d="M48.7715 35.9634C48.3804 35.9634 48.0871 35.9049 47.8915 35.7878C47.7155 35.6903 47.5982 35.5439 47.5395 35.3488C47.4809 35.1342 47.4515 34.8903 47.4515 34.6171V16.8512C47.4515 16.3439 47.5493 16.0024 47.7449 15.8268C47.96 15.6317 48.3315 15.5342 48.8595 15.5342H60.6515C60.9253 15.5342 61.16 15.5634 61.3555 15.622C61.5511 15.6805 61.6978 15.8073 61.7955 16.0024C61.8933 16.1976 61.9422 16.4902 61.9422 16.8805C61.9422 17.2707 61.8835 17.5634 61.7662 17.7585C61.6684 17.9342 61.5218 18.0512 61.3262 18.1098C61.1306 18.1683 60.896 18.1976 60.6222 18.1976H50.0915V24.2561H57.4249C57.6986 24.2561 57.9235 24.2854 58.0995 24.3439C58.2951 24.4024 58.4418 24.5195 58.5395 24.6951C58.6373 24.8707 58.6862 25.1439 58.6862 25.5146C58.6862 25.8659 58.6373 26.1293 58.5395 26.3049C58.4418 26.4805 58.2951 26.5976 58.0995 26.6561C57.904 26.6951 57.6595 26.7146 57.3662 26.7146H50.0915V33.3293H60.6515C60.9253 33.3293 61.16 33.3585 61.3555 33.4171C61.5511 33.4756 61.6978 33.6024 61.7955 33.7976C61.8933 33.9732 61.9422 34.2561 61.9422 34.6464C61.9422 35.0366 61.8835 35.3293 61.7662 35.5244C61.6684 35.7 61.5218 35.8171 61.3262 35.8756C61.1306 35.9342 60.896 35.9634 60.6222 35.9634H48.7715Z" fill="black"/>
<path d="M76.2582 36.022C74.7329 36.022 73.364 35.7781 72.1516 35.2903C70.9391 34.7829 69.8929 34.0707 69.0129 33.1537C68.1525 32.2171 67.4876 31.0951 67.0182 29.7878C66.5489 28.4805 66.3142 27.0268 66.3142 25.4268C66.3142 23.9049 66.5489 22.5293 67.0182 21.3C67.5071 20.0707 68.2014 19.0171 69.1009 18.139C70.0005 17.261 71.076 16.5781 72.3276 16.0902C73.5791 15.5829 74.9871 15.3195 76.5516 15.3C77.1578 15.3 77.7738 15.3585 78.3996 15.4756C79.0449 15.5927 79.6609 15.7585 80.2476 15.9732C80.8342 16.1878 81.3622 16.4415 81.8316 16.7342C82.164 16.9488 82.4476 17.1732 82.6822 17.4073C82.9169 17.622 83.044 17.8463 83.0636 18.0805C83.0831 18.1976 83.0636 18.3439 83.0049 18.5195C82.9462 18.6951 82.868 18.861 82.7702 19.0171C82.6138 19.2512 82.4378 19.4268 82.2422 19.5439C82.0662 19.6415 81.8902 19.6903 81.7142 19.6903C81.636 19.6903 81.4991 19.6415 81.3036 19.5439C81.108 19.4463 80.8636 19.3 80.5702 19.1049C80.2378 18.9098 79.8467 18.7244 79.3969 18.5488C78.9667 18.3732 78.4974 18.2366 77.9889 18.139C77.4805 18.0415 76.9525 17.9927 76.4049 17.9927C74.8991 17.9927 73.5889 18.2951 72.4742 18.9C71.3596 19.5049 70.4991 20.3732 69.8929 21.5049C69.3062 22.6366 69.0031 23.9732 68.9836 25.5146C69.0031 27.1146 69.316 28.5 69.9222 29.6707C70.5285 30.8415 71.3791 31.7488 72.4742 32.3927C73.5889 33.0366 74.8894 33.3585 76.3756 33.3585C76.8645 33.3585 77.3631 33.3195 77.8716 33.2415C78.38 33.1634 78.8787 33.0561 79.3676 32.9195C79.876 32.7634 80.3454 32.5781 80.7756 32.3634V26.7146H75.6422C75.388 26.7146 75.1631 26.6854 74.9676 26.6268C74.7916 26.5683 74.6547 26.4512 74.5569 26.2756C74.4787 26.1 74.4396 25.8366 74.4396 25.4854C74.4396 25.1342 74.4885 24.8707 74.5862 24.6951C74.684 24.5195 74.8209 24.4024 74.9969 24.3439C75.1729 24.2854 75.388 24.2561 75.6422 24.2561H82.0076C82.3987 24.2561 82.692 24.3244 82.8876 24.461C83.0831 24.5976 83.22 24.7732 83.2982 24.9878C83.396 25.1829 83.4449 25.4268 83.4449 25.7195V32.9195C83.4449 33.2317 83.2689 33.5634 82.9169 33.9146C82.5845 34.2464 82.1054 34.5585 81.4796 34.8512C81.0298 35.0854 80.5214 35.2903 79.9542 35.4659C79.4067 35.6415 78.82 35.7781 78.1942 35.8756C77.5685 35.9732 76.9231 36.022 76.2582 36.022Z" fill="black"/>
<path d="M98.1998 36.022C96.6745 36.022 95.3056 35.7781 94.0931 35.2903C92.8807 34.7829 91.8345 34.0707 90.9545 33.1537C90.094 32.2171 89.4291 31.0951 88.9598 29.7878C88.4905 28.4805 88.2558 27.0268 88.2558 25.4268C88.2558 23.9049 88.4905 22.5293 88.9598 21.3C89.4487 20.0707 90.1429 19.0171 91.0425 18.139C91.942 17.261 93.0176 16.5781 94.2691 16.0902C95.5207 15.5829 96.9287 15.3195 98.4931 15.3C99.0994 15.3 99.7154 15.3585 100.341 15.4756C100.986 15.5927 101.602 15.7585 102.189 15.9732C102.776 16.1878 103.304 16.4415 103.773 16.7342C104.106 16.9488 104.389 17.1732 104.624 17.4073C104.858 17.622 104.986 17.8463 105.005 18.0805C105.025 18.1976 105.005 18.3439 104.946 18.5195C104.888 18.6951 104.81 18.861 104.712 19.0171C104.555 19.2512 104.379 19.4268 104.184 19.5439C104.008 19.6415 103.832 19.6903 103.656 19.6903C103.578 19.6903 103.441 19.6415 103.245 19.5439C103.05 19.4463 102.805 19.3 102.512 19.1049C102.179 18.9098 101.788 18.7244 101.338 18.5488C100.908 18.3732 100.439 18.2366 99.9305 18.139C99.422 18.0415 98.894 17.9927 98.3465 17.9927C96.8407 17.9927 95.5305 18.2951 94.4158 18.9C93.3011 19.5049 92.4407 20.3732 91.8345 21.5049C91.2478 22.6366 90.9447 23.9732 90.9251 25.5146C90.9447 27.1146 91.2576 28.5 91.8638 29.6707C92.47 30.8415 93.3207 31.7488 94.4158 32.3927C95.5305 33.0366 96.8309 33.3585 98.3171 33.3585C98.806 33.3585 99.3047 33.3195 99.8131 33.2415C100.322 33.1634 100.82 33.0561 101.309 32.9195C101.818 32.7634 102.287 32.5781 102.717 32.3634V26.7146H97.5838C97.3296 26.7146 97.1047 26.6854 96.9091 26.6268C96.7331 26.5683 96.5963 26.4512 96.4985 26.2756C96.4203 26.1 96.3811 25.8366 96.3811 25.4854C96.3811 25.1342 96.43 24.8707 96.5278 24.6951C96.6256 24.5195 96.7625 24.4024 96.9385 24.3439C97.1145 24.2854 97.3296 24.2561 97.5838 24.2561H103.949C104.34 24.2561 104.634 24.3244 104.829 24.461C105.025 24.5976 105.162 24.7732 105.24 24.9878C105.338 25.1829 105.386 25.4268 105.386 25.7195V32.9195C105.386 33.2317 105.21 33.5634 104.858 33.9146C104.526 34.2464 104.047 34.5585 103.421 34.8512C102.971 35.0854 102.463 35.2903 101.896 35.4659C101.348 35.6415 100.762 35.7781 100.136 35.8756C99.51 35.9732 98.8647 36.022 98.1998 36.022Z" fill="black"/>
<path d="M112.104 35.9634C111.713 35.9634 111.42 35.9049 111.224 35.7878C111.048 35.6903 110.931 35.5439 110.872 35.3488C110.813 35.1342 110.784 34.8903 110.784 34.6171V16.8512C110.784 16.3439 110.882 16.0024 111.077 15.8268C111.292 15.6317 111.664 15.5342 112.192 15.5342H123.984C124.258 15.5342 124.492 15.5634 124.688 15.622C124.884 15.6805 125.03 15.8073 125.128 16.0024C125.226 16.1976 125.275 16.4902 125.275 16.8805C125.275 17.2707 125.216 17.5634 125.099 17.7585C125.001 17.9342 124.854 18.0512 124.659 18.1098C124.463 18.1683 124.228 18.1976 123.955 18.1976H113.424V24.2561H120.757C121.031 24.2561 121.256 24.2854 121.432 24.3439C121.628 24.4024 121.774 24.5195 121.872 24.6951C121.97 24.8707 122.019 25.1439 122.019 25.5146C122.019 25.8659 121.97 26.1293 121.872 26.3049C121.774 26.4805 121.628 26.5976 121.432 26.6561C121.236 26.6951 120.992 26.7146 120.699 26.7146H113.424V33.3293H123.984C124.258 33.3293 124.492 33.3585 124.688 33.4171C124.884 33.4756 125.03 33.6024 125.128 33.7976C125.226 33.9732 125.275 34.2561 125.275 34.6464C125.275 35.0366 125.216 35.3293 125.099 35.5244C125.001 35.7 124.854 35.8171 124.659 35.8756C124.463 35.9342 124.228 35.9634 123.955 35.9634H112.104Z" fill="black"/>
<path d="M145.223 15.622C145.633 15.9146 145.858 16.1878 145.897 16.4415C145.956 16.6951 145.858 16.9976 145.604 17.3488L138.711 27.7976V34.6756C138.711 34.9293 138.681 35.1634 138.623 35.3781C138.564 35.5732 138.437 35.7195 138.241 35.8171C138.065 35.9342 137.782 35.9927 137.391 35.9927C137 35.9927 136.706 35.9342 136.511 35.8171C136.335 35.7195 136.208 35.5634 136.129 35.3488C136.071 35.1342 136.041 34.8903 136.041 34.6171V27.7683L129.119 17.4073C128.884 17.0561 128.796 16.7537 128.855 16.5C128.913 16.2268 129.148 15.9439 129.559 15.6512C129.852 15.4561 130.097 15.339 130.292 15.3C130.507 15.2415 130.703 15.2707 130.879 15.3878C131.055 15.4854 131.221 15.6707 131.377 15.9439L137.361 25.3098L143.375 15.9439C143.551 15.6707 143.717 15.4854 143.873 15.3878C144.049 15.2902 144.245 15.261 144.46 15.3C144.675 15.3195 144.929 15.4268 145.223 15.622Z" fill="black"/>
<path d="M151.432 35.9634C151.041 35.9634 150.748 35.9049 150.552 35.7878C150.376 35.6903 150.259 35.5439 150.2 35.3488C150.142 35.1342 150.112 34.8903 150.112 34.6171V16.8512C150.112 16.3439 150.21 16.0024 150.406 15.8268C150.621 15.6317 150.992 15.5342 151.52 15.5342H163.312C163.586 15.5342 163.821 15.5634 164.016 15.622C164.212 15.6805 164.359 15.8073 164.456 16.0024C164.554 16.1976 164.603 16.4902 164.603 16.8805C164.603 17.2707 164.544 17.5634 164.427 17.7585C164.329 17.9342 164.183 18.0512 163.987 18.1098C163.792 18.1683 163.557 18.1976 163.283 18.1976H152.752V24.2561H160.086C160.36 24.2561 160.584 24.2854 160.76 24.3439C160.956 24.4024 161.103 24.5195 161.2 24.6951C161.298 24.8707 161.347 25.1439 161.347 25.5146C161.347 25.8659 161.298 26.1293 161.2 26.3049C161.103 26.4805 160.956 26.5976 160.76 26.6561C160.565 26.6951 160.32 26.7146 160.027 26.7146H152.752V33.3293H163.312C163.586 33.3293 163.821 33.3585 164.016 33.4171C164.212 33.4756 164.359 33.6024 164.456 33.7976C164.554 33.9732 164.603 34.2561 164.603 34.6464C164.603 35.0366 164.544 35.3293 164.427 35.5244C164.329 35.7 164.183 35.8171 163.987 35.8756C163.792 35.9342 163.557 35.9634 163.283 35.9634H151.432Z" fill="black"/>
<path d="M178.919 36.022C177.394 36.022 176.025 35.7781 174.813 35.2903C173.6 34.7829 172.554 34.0707 171.674 33.1537C170.813 32.2171 170.149 31.0951 169.679 29.7878C169.21 28.4805 168.975 27.0268 168.975 25.4268C168.975 23.9049 169.21 22.5293 169.679 21.3C170.168 20.0707 170.862 19.0171 171.762 18.139C172.661 17.261 173.737 16.5781 174.989 16.0902C176.24 15.5829 177.648 15.3195 179.213 15.3C179.819 15.3 180.435 15.3585 181.061 15.4756C181.706 15.5927 182.322 15.7585 182.909 15.9732C183.495 16.1878 184.023 16.4415 184.493 16.7342C184.825 16.9488 185.109 17.1732 185.343 17.4073C185.578 17.622 185.705 17.8463 185.725 18.0805C185.744 18.1976 185.725 18.3439 185.666 18.5195C185.607 18.6951 185.529 18.861 185.431 19.0171C185.275 19.2512 185.099 19.4268 184.903 19.5439C184.727 19.6415 184.551 19.6903 184.375 19.6903C184.297 19.6903 184.16 19.6415 183.965 19.5439C183.769 19.4463 183.525 19.3 183.231 19.1049C182.899 18.9098 182.508 18.7244 182.058 18.5488C181.628 18.3732 181.158 18.2366 180.65 18.139C180.141 18.0415 179.613 17.9927 179.066 17.9927C177.56 17.9927 176.25 18.2951 175.135 18.9C174.021 19.5049 173.16 20.3732 172.554 21.5049C171.967 22.6366 171.664 23.9732 171.645 25.5146C171.664 27.1146 171.977 28.5 172.583 29.6707C173.189 30.8415 174.04 31.7488 175.135 32.3927C176.25 33.0366 177.55 33.3585 179.037 33.3585C179.525 33.3585 180.024 33.3195 180.533 33.2415C181.041 33.1634 181.54 33.0561 182.029 32.9195C182.537 32.7634 183.006 32.5781 183.437 32.3634V26.7146H178.303C178.049 26.7146 177.824 26.6854 177.629 26.6268C177.453 26.5683 177.316 26.4512 177.218 26.2756C177.14 26.1 177.101 25.8366 177.101 25.4854C177.101 25.1342 177.149 24.8707 177.247 24.6951C177.345 24.5195 177.482 24.4024 177.658 24.3439C177.834 24.2854 178.049 24.2561 178.303 24.2561H184.669C185.06 24.2561 185.353 24.3244 185.549 24.461C185.744 24.5976 185.881 24.7732 185.959 24.9878C186.057 25.1829 186.106 25.4268 186.106 25.7195V32.9195C186.106 33.2317 185.93 33.5634 185.578 33.9146C185.245 34.2464 184.766 34.5585 184.141 34.8512C183.691 35.0854 183.182 35.2903 182.615 35.4659C182.068 35.6415 181.481 35.7781 180.855 35.8756C180.229 35.9732 179.584 36.022 178.919 36.022Z" fill="black"/>
<path d="M200.861 36.022C199.335 36.022 197.967 35.7781 196.754 35.2903C195.542 34.7829 194.495 34.0707 193.615 33.1537C192.755 32.2171 192.09 31.0951 191.621 29.7878C191.151 28.4805 190.917 27.0268 190.917 25.4268C190.917 23.9049 191.151 22.5293 191.621 21.3C192.11 20.0707 192.804 19.0171 193.703 18.139C194.603 17.261 195.679 16.5781 196.93 16.0902C198.182 15.5829 199.59 15.3195 201.154 15.3C201.76 15.3 202.376 15.3585 203.002 15.4756C203.647 15.5927 204.263 15.7585 204.85 15.9732C205.437 16.1878 205.965 16.4415 206.434 16.7342C206.767 16.9488 207.05 17.1732 207.285 17.4073C207.519 17.622 207.647 17.8463 207.666 18.0805C207.686 18.1976 207.666 18.3439 207.607 18.5195C207.549 18.6951 207.471 18.861 207.373 19.0171C207.216 19.2512 207.04 19.4268 206.845 19.5439C206.669 19.6415 206.493 19.6903 206.317 19.6903C206.239 19.6903 206.102 19.6415 205.906 19.5439C205.711 19.4463 205.466 19.3 205.173 19.1049C204.84 18.9098 204.449 18.7244 203.999 18.5488C203.569 18.3732 203.1 18.2366 202.591 18.139C202.083 18.0415 201.555 17.9927 201.007 17.9927C199.502 17.9927 198.191 18.2951 197.077 18.9C195.962 19.5049 195.102 20.3732 194.495 21.5049C193.909 22.6366 193.606 23.9732 193.586 25.5146C193.606 27.1146 193.919 28.5 194.525 29.6707C195.131 30.8415 195.982 31.7488 197.077 32.3927C198.191 33.0366 199.492 33.3585 200.978 33.3585C201.467 33.3585 201.966 33.3195 202.474 33.2415C202.983 33.1634 203.481 33.0561 203.97 32.9195C204.479 32.7634 204.948 32.5781 205.378 32.3634V26.7146H200.245C199.991 26.7146 199.766 26.6854 199.57 26.6268C199.394 26.5683 199.257 26.4512 199.159 26.2756C199.081 26.1 199.042 25.8366 199.042 25.4854C199.042 25.1342 199.091 24.8707 199.189 24.6951C199.287 24.5195 199.423 24.4024 199.599 24.3439C199.775 24.2854 199.991 24.2561 200.245 24.2561H206.61C207.001 24.2561 207.295 24.3244 207.49 24.461C207.686 24.5976 207.823 24.7732 207.901 24.9878C207.999 25.1829 208.047 25.4268 208.047 25.7195V32.9195C208.047 33.2317 207.871 33.5634 207.519 33.9146C207.187 34.2464 206.708 34.5585 206.082 34.8512C205.632 35.0854 205.124 35.2903 204.557 35.4659C204.009 35.6415 203.423 35.7781 202.797 35.8756C202.171 35.9732 201.526 36.022 200.861 36.022Z" fill="black"/>
</svg>
